<svg height="24" viewBox="0 0 24 24" width="24">
    <path
        d="M17.5,7c1.93,0,3.5,1.57,3.5,3.5c0,1-0.53,4.5-0.85,6.5h-2.02l0.24-1.89l0.14-1.09l-1.1-0.03C15.5,13.94,14,12.4,14,10.5 C14,8.57,15.57,7,17.5,7             M6.5,7C8.43,7,10,8.57,10,10.5c0,1-0.53,4.5-0.85,6.5H7.13l0.24-1.89l0.14-1.09l-1.1-0.03 C4.5,13.94,3,12.4,3,10.5C3,8.57,4.57,7,6.5,7             M17.5,6C15.01,6,13,8.01,13,10.5c0,2.44,1.95,4.42,4.38,4.49L17,18h4c0,0,1-6,1-7.5 C22,8.01,19.99,6,17.5,6L17.5,6z             M6.5,6C4.01,6,2,8.01,2,10.5c0,2.44,1.95,4.42,4.38,4.49L6,18h4c0,0,1-6,1-7.5 C11,8.01,8.99,6,6.5,6L6.5,6z"
        fill="currentColor"></path>
</svg>