<svg xmlns="http://www.w3.org/2000/svg" id="Layer_1" data-name="Layer 1" viewBox="0 0 729.67 728.74"
    fill="#5f55ee">
    <defs>
        <style>
            .cls-1 {
            fill: #fff;
            }
        </style>
    </defs>
    <path
        d="M369.03,728.73C155.33,729.67,5.73,563.94,.17,373.6-6.17,156.64,170.34-1.49,372.41,.01c197.83,1.46,359.74,163.38,357.23,369.3-2.46,202.06-162.12,360.93-360.61,359.42Zm-.18-38.61c183.6,.59,323.39-152,323.31-329.34-.08-176.1-148.98-322.54-328.11-323.13C186.54,37.07,38.92,185.97,37.81,364.31c-.99,159.8,127.98,325.65,331.04,325.81Z" />
    <path class="cls-1"
        d="M368.85,690.12c-203.06-.16-332.03-166.01-331.04-325.81C38.92,185.97,186.54,37.07,364.05,37.65c179.13,.59,328.03,147.03,328.11,323.13,.08,177.34-139.71,329.93-323.31,329.34Zm-5.71-32.59c172.95,.52,292.52-137.53,297.15-285.65,5.05-161.53-125.17-298.39-291.57-300.19-154.68-1.68-300.04,116.3-297.54,299.03,2.06,150.2,120.63,283.36,291.96,286.81Z" />
    <path
        d="M363.15,657.53c-171.34-3.45-289.91-136.61-291.96-286.81-2.5-182.73,142.86-300.71,297.54-299.03,166.4,1.8,296.62,138.66,291.57,300.19-4.63,148.11-124.19,286.17-297.15,285.65Zm-119.32-292.6c-.26,0-.52,0-.78,0,0,17-.05,34,.02,51,.07,17.35,1.58,34.8,.13,52.01-3.1,36.61,35.55,63.05,71.37,39.6,15.82-10.36,32.34-19.64,48.5-29.47,41.43-25.18,82.88-50.35,124.26-75.62,22.32-13.63,28.33-49.21,10.36-63.68-10.5-8.45-21.91-15.87-33.37-23-25.99-16.16-52.05-32.24-78.51-47.61-28.14-16.35-55.86-33.91-85.5-47.03-22.12-9.8-58.09,11.86-56.9,36.51,1.71,35.69,.44,71.52,.44,107.29Zm287.11,160.75c.93-39.22-29.16-71.24-67.91-72.27-39.78-1.06-74.25,33.02-75.25,74.39-.97,39.87,29.53,70.29,70.89,70.73,41.15,.43,71.26-29.91,72.28-72.85Zm.29-318.5c.44-39.48-32.23-72.14-72.37-72.32-39.25-.18-70.63,30.73-71.06,70.02-.45,40.68,30.94,74.17,69.94,74.63,41.55,.49,73.02-30.48,73.49-72.32ZM232.72,367.91c-.09,0-.18,0-.27,0,0-13.81,.95-27.73-.43-41.4-.61-6.09-4.48-13.65-9.33-17.22-28.69-21.17-70.15-17.17-94.28,8.1-26.2,27.44-28.15,68.11-4.72,98.43,19.4,25.11,61.52,32.72,91.42,16.38,11.71-6.4,19.71-14.62,17.88-29.87-1.36-11.32-.27-22.94-.27-34.43Zm258.78-44.88c36.02,30.05,36.45,54.5,4.16,83.4-2.24,2.01-2.5,9.94-.44,12.45,10.62,12.93,25.47,18.43,41.66,21.23,32.51,5.61,63.86-10.26,78.39-40.08,13.97-28.66,6.81-64.7-17.21-86.75-21.5-19.73-62.03-23.23-87.22-6.91-6.98,4.52-12.76,10.91-19.35,16.67Zm-258.98-52.81c-1.72-29.34,11.75-49,38.63-57.89,25.94-8.57,48.24,3.36,69.37,17,14.71-29.46-.62-71.11-34.93-87.36-37.47-17.74-82.78-2.23-100.81,34.45-17.17,34.92-5.13,77.65,27.74,93.8Zm110.02,231.91c-52.12,38.75-109.09,29.18-110.28-37.76-30.75,15.74-43.57,55.27-29.27,90.29,13.63,33.39,59.11,53.37,94.03,41.31,39.61-13.68,56.76-49.03,45.52-93.84Z" />
    <path class="cls-1"
        d="M243.83,364.93c0-35.77,1.27-71.6-.44-107.29-1.18-24.65,34.78-46.31,56.9-36.51,29.63,13.12,57.36,30.68,85.5,47.03,26.46,15.37,52.51,31.46,78.51,47.61,11.47,7.13,22.88,14.55,33.37,23,17.97,14.46,11.96,50.05-10.36,63.68-41.38,25.27-82.82,50.44-124.26,75.62-16.17,9.83-32.68,19.12-48.5,29.47-35.82,23.45-74.47-2.99-71.37-39.6,1.46-17.21-.05-34.67-.13-52.01-.07-17-.02-34-.02-51,.26,0,.52,0,.78,0Zm38.47,1.44s-.05,0-.08,0c0,25.69-.34,51.38,.1,77.07,.41,24.13,10.6,29.39,31.29,16.72,41.39-25.35,82.75-50.76,124.11-76.16,20.21-12.41,20.74-22.55,.59-35.09-42.43-26.4-85.14-52.36-128.01-78.05-16.29-9.76-27.62-3.26-27.9,15.69-.4,26.61-.1,53.22-.1,79.84Z" />
    <path class="cls-1"
        d="M530.93,525.68c-1.02,42.93-31.13,73.28-72.28,72.85-41.36-.44-71.85-30.86-70.89-70.73,1-41.38,35.48-75.45,75.25-74.39,38.75,1.04,68.84,33.05,67.91,72.27Z" />
    <path class="cls-1"
        d="M531.22,207.18c-.47,41.84-31.94,72.81-73.49,72.32-39-.46-70.39-33.95-69.94-74.63,.44-39.28,31.81-70.2,71.06-70.02,40.13,.18,72.81,32.84,72.37,72.32Z" />
    <path class="cls-1"
        d="M232.72,367.91c0,11.49-1.09,23.1,.27,34.43,1.83,15.26-6.16,23.47-17.88,29.87-29.9,16.33-72.01,8.73-91.42-16.38-23.43-30.32-21.48-70.99,4.72-98.43,24.13-25.27,65.58-29.27,94.28-8.1,4.84,3.57,8.71,11.13,9.33,17.22,1.38,13.68,.43,27.59,.43,41.4,.09,0,.18,0,.27,0Z" />
    <path class="cls-1"
        d="M491.5,323.04c6.59-5.76,12.37-12.14,19.35-16.67,25.19-16.32,65.72-12.81,87.22,6.91,24.02,22.05,31.18,58.09,17.21,86.75-14.53,29.82-45.88,45.69-78.39,40.08-16.19-2.8-31.04-8.3-41.66-21.23-2.06-2.51-1.81-10.44,.44-12.45,32.29-28.9,31.85-53.35-4.16-83.4Z" />
    <path class="cls-1"
        d="M232.53,270.22c-32.87-16.15-44.91-58.87-27.74-93.8,18.03-36.67,63.34-52.19,100.81-34.45,34.3,16.24,49.64,57.89,34.93,87.36-21.13-13.63-43.43-25.57-69.37-17-26.88,8.88-40.35,28.54-38.63,57.89Z" />
    <path class="cls-1"
        d="M342.55,502.13c11.24,44.8-5.91,80.15-45.52,93.84-34.92,12.06-80.4-7.92-94.03-41.31-14.3-35.02-1.48-74.56,29.27-90.29,1.2,66.94,58.17,76.52,110.28,37.76Z" />
    <path
        d="M282.29,366.37c0-26.61-.3-53.23,.1-79.84,.29-18.95,11.61-25.45,27.9-15.69,42.87,25.69,85.58,51.65,128.01,78.05,20.15,12.54,19.63,22.68-.59,35.09-41.36,25.4-82.72,50.81-124.11,76.16-20.7,12.68-30.88,7.41-31.29-16.72-.43-25.68-.1-51.38-.1-77.07,.03,0,.05,0,.08,0Z" />
</svg>