<svg xmlns="http://www.w3.org/2000/svg" width="192" height="192" viewBox="0 0 24 24">
    <g fill="none" fill-rule="evenodd">
        <path
            d="M24 0v24H0V0zM12.593 23.258l-.011.002l-.071.035l-.02.004l-.014-.004l-.071-.035c-.01-.004-.019-.001-.024.005l-.004.01l-.017.428l.005.02l.01.013l.104.074l.015.004l.012-.004l.104-.074l.012-.016l.004-.017l-.017-.427c-.002-.01-.009-.017-.017-.018m.265-.113l-.013.002l-.185.093l-.01.01l-.003.011l.018.43l.005.012l.008.007l.201.093c.012.004.023 0 .029-.008l.004-.014l-.034-.614c-.003-.012-.01-.02-.02-.022m-.715.002a.023.023 0 0 0-.027.006l-.006.014l-.034.614c0 .012.007.02.017.024l.015-.002l.201-.093l.01-.008l.004-.011l.017-.43l-.003-.012l-.01-.01z" />
        <path fill="currentColor"
            d="M20 12a2 2 0 0 1 1.995 1.85L22 14v4a2 2 0 0 1-1.85 1.995L20 20h-5a2 2 0 0 1-1.995-1.85L13 18v-4a2 2 0 0 1 1.85-1.995L15 12zm-1-8a2 2 0 0 1 2 2v4h-7a3 3 0 0 0-3 3v6H4a2 2 0 0 1-2-2V6a2 2 0 0 1 2-2zm1 10h-5v4h5zM4.173 6.173a1 1 0 0 0 0 1.414l1.915 1.915h-.586a1 1 0 0 0 0 2h3a1 1 0 0 0 1-1v-3a1 1 0 0 0-2 0v.586L5.587 6.173a1 1 0 0 0-1.414 0" />
    </g>
</svg>