<svg xmlns="http://www.w3.org/2000/svg" width="192" height="192" viewBox="0 0 16 16">
    <path fill="currentColor"
        d="M6 2a2 2 0 1 1 3.999-.001A2 2 0 0 1 6 2m6.359 6a1.641 1.641 0 0 1 3.282 0a1.641 1.641 0 0 1-3.282 0m-1.602 4.243a1.486 1.486 0 1 1 2.971 0a1.486 1.486 0 0 1-2.971 0M6.654 14a1.346 1.346 0 1 1 2.693.001A1.346 1.346 0 0 1 6.654 14m-4.116-1.757a1.22 1.22 0 1 1 2.439 0a1.22 1.22 0 0 1-2.439 0M.896 8a1.104 1.104 0 1 1 2.207 0A1.104 1.104 0 0 1 .896 8m1.861-4.243a1 1 0 0 1 2 0a1 1 0 0 1-2 0m11.297 0a1.811 1.811 0 1 1-3.623 0a1.811 1.811 0 0 1 3.623 0" />
</svg>